<?xml version="1.0" encoding="UTF-8" standalone="no"?><svg id="svg2" xmlns:rdf="http://www.w3.org/1999/02/22-rdf-syntax-ns#" xmlns="http://www.w3.org/2000/svg" height="39.274" viewBox="0 0 39.283749 39.273582" width="39.284" version="1.1" xmlns:cc="http://creativecommons.org/ns#" xmlns:dc="http://purl.org/dc/elements/1.1/"> <path id="rect4146" style="color-rendering:auto;color:#000000;isolation:auto;mix-blend-mode:normal;shape-rendering:auto;solid-color:#000000;image-rendering:auto" d="m19.666 0.0000015532c-0.635-0.00071-1.272 0.24199-1.759 0.72851l-17.174 17.13c-0.97546 0.97305-0.97718 2.5424-0.004 3.5176l17.131 17.164c0.97328 0.97523 2.5421 0.97695 3.5176 0.004l17.174-17.131c0.97545-0.97304 0.97718-2.5424 0.004-3.5176l-17.132-17.163c-0.486-0.4881-1.122-0.7322-1.758-0.73291zm-0.972 4.8379c0-1.4496 3.7208 1.7531 7.7668 5.4192s8.417 7.7958 8.417 9.2839c0 1.4882-4.3711 5.2806-8.417 9.1575-4.046 3.8769-7.7668 7.8382-7.7668 5.5456v-9.8848h-8.3514v-4.8184-4.8164h8.3514z" fill="#151010"/></svg>
