<?xml version="1.0" encoding="UTF-8" standalone="no"?>
<!-- Created with Inkscape (http://www.inkscape.org/) -->

<svg
   xmlns:dc="http://purl.org/dc/elements/1.1/"
   xmlns:cc="http://creativecommons.org/ns#"
   xmlns:rdf="http://www.w3.org/1999/02/22-rdf-syntax-ns#"
   xmlns:svg="http://www.w3.org/2000/svg"
   xmlns="http://www.w3.org/2000/svg"
   xmlns:sodipodi="http://sodipodi.sourceforge.net/DTD/sodipodi-0.dtd"
   xmlns:inkscape="http://www.inkscape.org/namespaces/inkscape"
   width="2.0463867mm"
   height="3.4020319mm"
   viewBox="0 0 7.2509766 12.054444"
   id="svg2"
   version="1.1"
   inkscape:version="0.91 r"
   sodipodi:docname="drawing-1.svg">
  <defs
     id="defs4" />
  <sodipodi:namedview
     id="base"
     pagecolor="#ffffff"
     bordercolor="#666666"
     borderopacity="1.0"
     inkscape:pageopacity="0.0"
     inkscape:pageshadow="2"
     inkscape:zoom="5.6"
     inkscape:cx="15.370034"
     inkscape:cy="13.596806"
     inkscape:document-units="px"
     inkscape:current-layer="layer1"
     showgrid="false"
     showguides="false"
     inkscape:window-width="1871"
     inkscape:window-height="1056"
     inkscape:window-x="49"
     inkscape:window-y="24"
     inkscape:window-maximized="1"
     fit-margin-top="0"
     fit-margin-left="0"
     fit-margin-right="0"
     fit-margin-bottom="0" />
  <metadata
     id="metadata7">
    <rdf:RDF>
      <cc:Work
         rdf:about="">
        <dc:format>image/svg+xml</dc:format>
        <dc:type
           rdf:resource="http://purl.org/dc/dcmitype/StillImage" />
        <dc:title></dc:title>
      </cc:Work>
    </rdf:RDF>
  </metadata>
  <g
     inkscape:label="Layer 1"
     inkscape:groupmode="layer"
     id="layer1"
     transform="translate(-108.38222,-214.02498)">
    <g
       style="font-style:italic;font-variant:normal;font-weight:bold;font-stretch:normal;font-size:12.5px;line-height:125%;font-family:'Open Sans';-inkscape-font-specification:'Open Sans Bold Italic';letter-spacing:0px;word-spacing:0px;fill:#000000;fill-opacity:1;stroke:none;stroke-width:1px;stroke-linecap:butt;stroke-linejoin:miter;stroke-opacity:1"
       id="text4136">
      <path
         d="m 109.44423,226.07942 q -0.63477,0 -1.06201,-0.15259 l 0,-1.47705 q 0.37231,0.12818 0.7019,0.12818 0.83008,0 1.04981,-1.0376 l 1.13525,-5.3772 -1.02539,0 0.177,-0.90942 1.15357,-0.48828 0.10986,-0.5127 q 0.25024,-1.15967 0.84228,-1.69067 0.59815,-0.53711 1.67237,-0.53711 0.79956,0 1.43432,0.29907 l -0.48828,1.36719 q -0.42114,-0.18921 -0.81176,-0.18921 -0.34791,0 -0.56153,0.24414 -0.21362,0.24414 -0.28686,0.64087 l -0.0732,0.37842 1.33667,0 -0.29907,1.3977 -1.34277,0 -1.19629,5.65186 q -0.46997,2.2644 -2.46582,2.2644 z"
         style=""
         id="path4182" />
    </g>
  </g>
</svg>
